<svg width="102" height="33" viewBox="0 0 102 33" fill="none" xmlns="http://www.w3.org/2000/svg">
<g clip-path="url(#clip0_24_1393)">
<path fill-rule="evenodd" clip-rule="evenodd" d="M75.9832 19.4418L83.5046 12.0638C83.5046 13.2715 84.0453 17.214 83.4856 17.7788C81.5836 20.3948 78.4915 20.3894 75.9832 19.4418ZM87.4742 14.5231C87.4742 13.5679 87.5994 13.1787 87.9602 12.4377C90.4274 7.36944 97.8163 9.60469 97.8163 14.3181C97.8163 17.1185 95.8948 19.5443 92.9063 19.5443C89.8039 19.5443 87.4742 17.6584 87.4742 14.5231ZM73.5807 16.7777C73.1842 15.9674 73.2674 14.8393 73.2674 13.9084C73.2674 11.8668 74.8475 10.2779 76.6098 9.5022C77.7867 8.98438 79.8705 8.71757 81.102 9.29722L73.5807 16.7778V16.7777ZM83.5046 6.63293C79.3361 4.46939 75.3421 5.35483 72.0783 8.43835C71.0574 9.50907 69.82 11.3199 69.82 12.8837L69.7155 7.14499C69.7205 5.24267 70.1396 5.60806 66.1637 5.60806C65.5073 5.60806 65.7437 6.48849 65.7482 7.03766C65.7681 9.59076 65.8495 15.4893 65.7473 17.5985C65.613 20.3695 62.9139 20.2446 62.0404 19.0801C61.7285 18.6642 61.5675 17.972 61.5675 17.2899V5.71055H57.8068V17.6997C57.8068 18.3229 57.6287 18.814 57.314 19.1637C56.2547 20.3424 54.3902 19.9273 53.8947 18.6679C53.3752 17.3475 53.7265 9.09614 53.7324 7.0425C53.7382 5.28183 54.2148 5.60789 50.285 5.60789C50.0445 5.60789 49.9717 5.67915 49.9717 5.91536V18.3144C49.9717 19.864 50.715 20.9605 51.7046 21.943C52.4954 22.7278 54.0651 23.5405 55.195 23.5405C57.2955 23.5405 58.0899 23.3649 59.6867 22.0034L61.1823 22.9957C63.6599 24.2029 66.699 23.4298 68.3447 21.2737C68.7204 20.7819 69.2218 19.8118 69.4171 19.149C69.7246 18.1077 69.7151 17.5216 69.7151 16.1624H69.82C69.82 16.8916 70.3078 18.0678 70.6098 18.5643C71.8346 20.5795 73.5526 22.3964 75.9592 23.0513C78.6778 23.791 81.461 23.6439 83.8821 22.0665C84.6132 21.5903 85.432 20.7436 85.6982 20.5687C86.3692 21.0095 86.6246 21.6939 88.3788 22.5503C91.8705 24.2549 95.685 23.7976 98.683 21.3168C107.016 14.421 98.3009 1.42262 87.4742 7.0425V0.48427L83.609 0.279297C83.3174 1.5071 83.5046 5.04997 83.5046 6.63258V6.63293Z" fill="#202B8F"/>
<path fill-rule="evenodd" clip-rule="evenodd" d="M20.8286 15.3424C20.8286 18.4671 23.3999 21.4312 26.0499 22.7222C28.3378 23.8369 31.6702 23.7881 33.9237 22.6542C36.8951 21.1591 39.1098 18.3308 39.1098 14.9324V5.91489C39.1098 5.67873 39.0371 5.60741 38.7964 5.60741C34.8059 5.60741 35.1165 5.3356 35.1339 6.42118C35.1602 8.04223 35.2153 14.0464 35.1138 14.8043C34.7483 17.5414 33.0224 19.4353 30.2667 19.5687C29.1157 19.6244 27.4339 19.1713 26.7013 18.4963C24.2327 16.2204 24.9025 14.7321 24.9025 10.731C24.9025 9.12555 24.9025 7.52011 24.9025 5.91466C24.6761 5.76596 24.5548 5.60724 24.1713 5.60724H20.8284V15.3422L20.8286 15.3424Z" fill="#202B8F"/>
<path fill-rule="evenodd" clip-rule="evenodd" d="M39.8396 3.55886V23.2334C39.8396 23.5191 40.2388 23.4384 40.6751 23.4384H43.9131V0.484619L39.8391 3.55867L39.8396 3.55886Z" fill="#202B8F"/>
<path fill-rule="evenodd" clip-rule="evenodd" d="M45.2724 3.76385V23.1311C45.2372 23.7909 47.3318 23.4087 48.4119 23.4363C49.563 23.4658 49.3288 23.8347 49.346 21.0817V0.382324L45.272 3.76385H45.2724Z" fill="#202B8F"/>
</g>
<defs>
<clipPath id="clip0_24_1393">
<rect width="107.603" height="32.375" fill="white" transform="translate(-5.60278)"/>
</clipPath>
</defs>
</svg>
